<?xml version="1.0" encoding="UTF-8" standalone="no"?>
<svg
   xmlns:dc="http://purl.org/dc/elements/1.1/"
   xmlns:cc="http://creativecommons.org/ns#"
   xmlns:rdf="http://www.w3.org/1999/02/22-rdf-syntax-ns#"
   xmlns:svg="http://www.w3.org/2000/svg"
   xmlns="http://www.w3.org/2000/svg"
   xmlns:sodipodi="http://sodipodi.sourceforge.net/DTD/sodipodi-0.dtd"
   xmlns:inkscape="http://www.inkscape.org/namespaces/inkscape"
   version="1.1"
   id="svg18201"
   viewBox="0 0 171.845 30.39875"
   height="30.39875"
   width="171.845"
   inkscape:version="0.91 r13725"
   sodipodi:docname="Bank Muamalat logo.svg">
  <sodipodi:namedview
     pagecolor="#ffffff"
     bordercolor="#666666"
     borderopacity="1"
     objecttolerance="10"
     gridtolerance="10"
     guidetolerance="10"
     inkscape:pageopacity="0"
     inkscape:pageshadow="2"
     inkscape:window-width="1366"
     inkscape:window-height="706"
     id="namedview40"
     showgrid="false"
     fit-margin-top="0"
     fit-margin-left="0"
     fit-margin-right="0"
     fit-margin-bottom="0"
     inkscape:zoom="5.2503731"
     inkscape:cx="85.922501"
     inkscape:cy="15.199375"
     inkscape:window-x="-8"
     inkscape:window-y="-8"
     inkscape:window-maximized="1"
     inkscape:current-layer="svg18201" />
  <defs
     id="defs18203" />
  <metadata
     id="metadata18206">
    <rdf:RDF>
      <cc:Work
         rdf:about="">
        <dc:format>image/svg+xml</dc:format>
        <dc:type
           rdf:resource="http://purl.org/dc/dcmitype/StillImage" />
        <dc:title></dc:title>
      </cc:Work>
    </rdf:RDF>
  </metadata>
  <g
     id="g4235"
     transform="translate(0.50000061,0.50000015)">
    <path
       inkscape:connector-curvature="0"
       d="M 33.50375,8.0925 C 33.1575,8.0925 32.06875,8.04 31.14625,8.04 30.89,8.04 30.77,8.0775 30.77,8.1975 c 0,0.12125 0.0975,0.15875 0.29375,0.15875 0.24,0 0.5325,0.015 0.675,0.0525 0.57125,0.12 0.70625,0.3975 0.74375,0.98375 0.0375,0.555 0.0375,1.04375 0.0375,3.67875 l 0,3.04875 c 0,1.59125 0,2.9575 -0.09,3.68625 -0.0675,0.50375 -0.1575,0.88625 -0.50375,0.95375 -0.1575,0.0375 -0.36,0.0675 -0.6225,0.0675 -0.21,0 -0.27875,0.0525 -0.27875,0.1425 0,0.12 0.12125,0.1725 0.34625,0.1725 0.6975,0 1.78625,-0.0525 2.185,-0.0525 0.5175,0 2.095,0.105 2.515,0.105 3.18375,0 4.625,-1.92875 4.625,-3.77625 0,-2.0275 -1.73375,-3.25875 -3.15375,-3.7475 0.95375,-0.7575 1.765,-1.60625 1.765,-3.0325 0,-0.91625 -0.555,-2.59875 -3.68625,-2.59875 -0.59375,0 -1.26875,0.0525 -2.1175,0.0525 M 34.72,13.55125 c -0.075,-0.015 -0.1275,-0.0525 -0.1275,-0.1875 l 0,-4.28 c 0,-0.195 0.0375,-0.2625 0.1575,-0.2925 0.1725,-0.0375 0.33,-0.0375 0.57,-0.0375 1.495,0 2.17,1.52375 2.17,2.6875 0,0.84875 -0.2625,1.4725 -0.7125,1.8325 -0.2925,0.2625 -0.67625,0.33 -1.24625,0.33 -0.39875,0 -0.66125,-0.015 -0.81125,-0.0525 M 35.2,20.205 c -0.555,-0.22625 -0.6075,-0.51875 -0.6075,-1.66 l 0,-4.1075 c 0,-0.09 0.0375,-0.12 0.105,-0.12 0.2625,0 0.435,0 0.75125,0.015 0.6675,0.0375 1.07375,0.1575 1.43375,0.4125 1.31375,0.92375 1.68125,2.37375 1.68125,3.4475 0,1.80125 -1.31375,2.2225 -2.09375,2.2225 -0.39875,0 -0.80375,-0.0225 -1.27,-0.21"
       style="fill:#6d2071;fill-opacity:1;fill-rule:nonzero;stroke:none"
       id="path18473" />
    <path
       inkscape:connector-curvature="0"
       d="m 45.18,9.955 -3.785,9.46875 c -0.3,0.75125 -0.585,1.26125 -1.28375,1.35875 -0.12,0.015 -0.33,0.03 -0.46625,0.03 -0.12,0 -0.18,0.03 -0.18,0.12 0,0.12 0.09,0.15 0.28625,0.15 0.7875,0 1.61375,-0.045 1.77875,-0.045 0.46625,0 1.11875,0.045 1.6,0.045 0.165,0 0.255,-0.03 0.255,-0.15 0,-0.09 -0.045,-0.12 -0.225,-0.12 l -0.22625,0 c -0.465,0 -0.6075,-0.2025 -0.6075,-0.4725 0,-0.18 0.0825,-0.54125 0.2325,-0.91625 l 0.81125,-2.155 c 0.03,-0.09 0.06,-0.12 0.135,-0.12 l 3.36375,0 c 0.075,0 0.12,0.03 0.15,0.105 L 48.22,20.445 c 0.0825,0.18 -0.0225,0.3225 -0.1275,0.3525 -0.1575,0.015 -0.2175,0.045 -0.2175,0.135 0,0.105 0.18,0.105 0.4575,0.12 1.0775,0.0275 2.07625,0.03 2.66125,0.03 -0.17625,-0.002 -0.295,-0.0225 -0.295,-0.15 0,-0.09 0.09,-0.12 0.24,-0.12 0.11125,0 0.24625,-0.005 0.38,-0.02 -0.09,-0.0112 -0.1825,-0.0262 -0.275,-0.0475 C 50.72875,20.67 50.2925,20.46 49.715,19.10875 48.75375,16.8175 46.34375,10.66125 45.975,9.835 45.825,9.49 45.735,9.35375 45.6,9.35375 45.45,9.35375 45.36,9.52 45.18,9.955 m -1.435,6.33 1.39,-3.71 0.09,-0.135 0.075,0.135 1.35875,3.725 -0.075,0.09 -2.77875,0 -0.06,-0.105 m 7.3025,4.7975 c 0.0462,0 0.09,0 0.13125,0 0.11375,0 0.21,-0.001 0.29125,-0.004 -0.13625,0.002 -0.2775,0.004 -0.4225,0.004"
       style="fill:#6d2071;fill-opacity:1;fill-rule:nonzero;stroke:none"
       id="path18475" />
    <path
       inkscape:connector-curvature="0"
       d="m 52.2225,9.94 -0.135,8.9275 c -0.015,1.3075 -0.075,1.7425 -0.4725,1.87 -0.21125,0.06 -0.48125,0.075 -0.67625,0.075 -0.15,0 -0.24,0.03 -0.24,0.12 0,0.135 0.135,0.15 0.33,0.15 0.78875,0 1.49375,-0.045 1.62875,-0.045 0.28625,0 0.88625,0.045 1.87,0.045 0.21,0 0.34625,-0.03 0.34625,-0.15 0,-0.09 -0.0913,-0.12 -0.25625,-0.12 -0.24,0 -0.525,-0.015 -0.78,-0.105 -0.30875,-0.1125 -0.50375,-0.5025 -0.53375,-1.675 l -0.165,-6.33625 0.045,0 c 0.27,0.2925 1.945,2.1775 3.58875,3.79875 1.57,1.555 3.5,3.52875 4.445,4.4375 0.16625,0.165 0.35375,0.33125 0.51875,0.33125 0.135,0 0.195,-0.13625 0.195,-0.46625 l 0.165,-9.51375 c 0.015,-0.8475 0.135,-1.16375 0.55625,-1.28375 0.18,-0.045 0.3,-0.045 0.45,-0.045 0.0475,0 0.09,-0.004 0.12625,-0.01 C 63.14625,9.93 63.1025,9.8938 63.1025,9.82 c 0,-0.0675 0.045,-0.105 0.135,-0.1225 -0.0575,-0.01 -0.13125,-0.0125 -0.21,-0.0125 -0.73625,0 -1.30625,0.045 -1.47875,0.045 -0.31625,0 -1.03625,-0.045 -1.8175,-0.045 -0.2325,0 -0.3975,0.015 -0.3975,0.135 0,0.09 0.06,0.135 0.2475,0.135 0.21,0 0.57,0 0.79625,0.09 0.36,0.15 0.495,0.43625 0.51,1.35875 l 0.15,6.76625 -0.075,0 c -0.255,-0.24125 -2.29,-2.41125 -3.31125,-3.44 -2.2,-2.185 -4.4975,-4.64 -4.6775,-4.835 -0.255,-0.27 -0.39125,-0.465 -0.55625,-0.465 -0.15,0 -0.195,0.21 -0.195,0.51"
       style="fill:#6d2071;fill-opacity:1;fill-rule:nonzero;stroke:none"
       id="path18477" />
    <path
       inkscape:connector-curvature="0"
       d="m 71.8275,9.73 c -0.405,0 -1.23875,-0.045 -1.55375,-0.045 -0.165,0 -0.24,0.03 -0.24,0.135 0,0.09 0.06,0.12 0.195,0.15 0.15,0.03 0.21,0.135 0.21,0.3 0,0.25625 -0.33,0.63875 -0.75125,1.13375 -0.435,0.51125 -2.635,2.75625 -3.15375,3.31875 l -0.075,0 0,-0.6675 c 0,-2.29 0,-2.71125 0.03,-3.19875 C 66.51875,10.33 66.64625,10.075 67.0525,10 c 0.18,-0.03 0.27,-0.045 0.42,-0.045 0.12,0 0.21,-0.03 0.21,-0.135 0,-0.105 -0.105,-0.135 -0.315,-0.135 -0.51,0 -1.46375,0.045 -1.825,0.045 -0.36,0 -1.31375,-0.045 -2.11,-0.045 -0.225,0 -0.33,0.03 -0.33,0.135 0,0.105 0.09,0.135 0.255,0.135 0.21125,0 0.46625,0.015 0.58625,0.045 0.495,0.105 0.61625,0.345 0.65375,0.85625 C 64.62,11.34375 64.62,11.765 64.62,14.055 l 0,2.65 c 0,1.39 0,2.58375 -0.0763,3.21375 -0.06,0.43625 -0.135,0.76625 -0.435,0.83375 -0.135,0.03 -0.315,0.06 -0.54,0.06 -0.18125,0 -0.24125,0.045 -0.24125,0.12 0,0.105 0.105,0.15 0.30125,0.15 0.6,0 1.55375,-0.045 1.89875,-0.045 0.37625,0 1.33,0.045 2.17,0.045 0.16625,0 0.28625,-0.045 0.28625,-0.15 0,-0.075 -0.075,-0.12 -0.19625,-0.12 -0.195,0 -0.525,-0.03 -0.735,-0.06 C 66.6687,20.685 66.5337,20.355 66.5037,19.93375 66.4587,19.28875 66.4587,18.095 66.4587,16.705 l 0,-1.36625 0.075,0 0.165,0.225 c 0.32375,0.43625 3.28875,3.92 3.95,4.505 0.65375,0.57875 1.05875,0.90875 1.8775,0.98375 0.315,0.03 0.585,0.03 1.03625,0.03 l 1.31375,0 c 0.285,0 0.36,-0.045 0.36,-0.15 0,-0.09 -0.09,-0.12 -0.195,-0.12 -0.18,0 -0.4875,-0.045 -0.93875,-0.2325 -0.81,-0.315 -1.49375,-0.99125 -2.155,-1.6225 -0.585,-0.5625 -3.54375,-3.73875 -4.08375,-4.4525 0.51,-0.54 2.785,-2.8 3.25875,-3.25125 0.645,-0.6375 1.15625,-0.95375 1.62875,-1.13375 0.285,-0.105 0.66125,-0.165 0.87125,-0.165 0.15,0 0.225,-0.03 0.225,-0.135 0,-0.105 -0.105,-0.135 -0.255,-0.135 -0.46625,0 -1.29875,0.045 -1.765,0.045"
       style="fill:#6d2071;fill-opacity:1;fill-rule:nonzero;stroke:none"
       id="path18479" />
    <path
       inkscape:connector-curvature="0"
       d="M 91.83875,8.0775 87.13,17.96625 82.4,8.1975 C 82.175,7.7475 82.07,7.665 81.935,7.665 c -0.14375,0 -0.24875,0.15 -0.29375,0.45 L 79.9225,19.40875 c -0.0825,0.585 -0.22625,1.26125 -0.71375,1.36625 -0.255,0.0525 -0.375,0.0525 -0.5175,0.0525 -0.17375,0 -0.27875,0.0375 -0.27875,0.12 0,0.1575 0.1425,0.195 0.31625,0.195 0.555,0 1.38875,-0.0525 1.71125,-0.0525 0.315,0 1.09625,0.0525 1.825,0.0525 0.255,0 0.4125,-0.0375 0.4125,-0.195 0,-0.0825 -0.12,-0.12 -0.2625,-0.12 -0.1725,0 -0.4125,-0.015 -0.72875,-0.0825 -0.2925,-0.075 -0.5175,-0.225 -0.5175,-0.555 0,-0.27875 0.0225,-0.50375 0.0525,-0.81875 l 0.90125,-6.89375 0.0675,0 c 0.6075,1.3 1.64375,3.485 1.80125,3.845 0.21125,0.4875 1.5775,3.13875 1.9975,3.935 C 86.2675,20.775 86.44,21.12 86.59,21.12 c 0.1575,0 0.2475,-0.15 0.645,-0.96875 l 3.7775,-7.86125 0.0675,0 1.03625,7.62125 c 0.075,0.48125 0.0225,0.70625 -0.0825,0.74375 -0.12,0.0525 -0.195,0.105 -0.195,0.1875 0,0.105 0.105,0.1575 0.5025,0.195 0.69875,0.0525 3.08625,0.105 3.52125,0.105 0.24125,0 0.45125,-0.0525 0.45125,-0.195 0,-0.105 -0.12,-0.12 -0.2775,-0.12 -0.22625,0 -0.57125,-0.015 -1.07375,-0.1725 -0.52625,-0.1575 -0.69875,-0.66125 -0.84875,-1.75 L 92.53625,8.1975 c -0.0525,-0.36 -0.1575,-0.5325 -0.315,-0.5325 -0.1575,0 -0.255,0.135 -0.3825,0.4125"
       style="fill:#6d2071;fill-opacity:1;fill-rule:nonzero;stroke:none"
       id="path18481" />
    <path
       inkscape:connector-curvature="0"
       d="m 104.59625,9.76 c -0.015,0 -0.96125,-0.045 -1.7275,-0.045 -0.21,0 -0.315,0.03 -0.315,0.135 0,0.105 0.09,0.135 0.255,0.135 0.165,0 0.42,0.015 0.54,0.045 0.49625,0.105 0.61625,0.345 0.64625,0.85625 0.03,0.48 0.03,0.90125 0.03,3.19125 l 0,1.8775 c 0,1.54625 -0.045,2.8975 -0.87125,3.72375 -0.6,0.60125 -1.41125,0.81125 -2.0725,0.81125 -0.51,0 -1.20125,-0.06 -1.87625,-0.61625 -0.73625,-0.6 -1.1725,-1.51625 -1.1725,-3.69375 l 0,-2.1025 c 0,-2.29 0,-2.71125 0.03,-3.19125 0.03,-0.52625 0.15125,-0.78125 0.55625,-0.85625 0.18,-0.03 0.27,-0.045 0.435,-0.045 0.15125,0 0.24125,-0.03 0.24125,-0.135 0,-0.105 -0.105,-0.135 -0.33125,-0.135 -0.54,0 -1.48625,0.045 -1.84625,0.045 -0.45125,0 -1.3975,-0.045 -2.1925,-0.045 -0.22625,0 -0.33125,0.03 -0.33125,0.135 0,0.105 0.09,0.135 0.255,0.135 0.21125,0 0.46625,0.015 0.58625,0.045 0.495,0.105 0.61625,0.345 0.64625,0.85625 0.03,0.48 0.03,0.90125 0.03,3.19125 l 0,2.1925 c 0,2.1775 0.57,3.28875 1.33625,3.98 1.09625,0.99 2.5375,1.03625 3.33375,1.03625 0.97625,0 2.0575,-0.16625 3.12375,-1.08125 1.26125,-1.08125 1.42625,-2.85375 1.42625,-4.52125 l 0,-1.60625 c 0,-2.29 0,-2.71125 0.03,-3.19125 0.03,-0.52625 0.15,-0.78125 0.55625,-0.85625 0.18,-0.03 0.27,-0.045 0.435,-0.045 0.18,0 0.27,-0.03 0.27,-0.135 0,-0.105 -0.105,-0.135 -0.315,-0.135 -0.585,0 -1.53125,0.045 -1.71125,0.045"
       style="fill:#6d2071;fill-opacity:1;fill-rule:nonzero;stroke:none"
       id="path18483" />
    <path
       inkscape:connector-curvature="0"
       d="m 110.6325,9.985 -3.76875,9.43875 c -0.30125,0.75125 -0.58625,1.26125 -1.2775,1.35125 -0.12,0.015 -0.33,0.03 -0.465,0.03 -0.12,0 -0.18,0.03 -0.18,0.12 0,0.12 0.09,0.15 0.285,0.15 0.78125,0 1.6075,-0.045 1.7725,-0.045 0.465,0 1.11125,0.045 1.59125,0.045 0.165,0 0.255,-0.03 0.255,-0.15 0,-0.09 -0.045,-0.12 -0.225,-0.12 l -0.225,0 c -0.465,0 -0.60125,-0.195 -0.60125,-0.465 0,-0.18 0.0763,-0.54125 0.22625,-0.91625 l 0.81,-2.1475 c 0.03,-0.09 0.06,-0.12 0.13625,-0.12 l 3.34875,0 0.15,0.105 1.20125,3.18375 c 0.075,0.18 -0.03,0.315 -0.135,0.345 -0.1425,0.015 -0.21,0.045 -0.21,0.135 0,0.105 0.18,0.105 0.4575,0.12 1.20125,0.03 2.2975,0.03 2.83875,0.03 0.01,0 0.0212,0 0.0312,0 -0.14,-0.002 -0.25,-0.035 -0.25,-0.165 0,-0.075 0.0912,-0.105 0.24125,-0.105 0.07,0 0.13625,0 0.225,-0.009 -0.1225,-0.01 -0.2525,-0.025 -0.3825,-0.0512 -0.31625,-0.075 -0.75125,-0.285 -1.3225,-1.63625 -0.96125,-2.28375 -3.37125,-8.4175 -3.73125,-9.24375 -0.15,-0.345 -0.24,-0.48 -0.37625,-0.48 -0.15,0 -0.24,0.165 -0.42,0.6 m -1.42625,6.315 1.38125,-3.7025 0.09,-0.135 0.075,0.135 1.35125,3.7175 -0.075,0.09 -2.7625,0 -0.06,-0.105"
       style="fill:#6d2071;fill-opacity:1;fill-rule:nonzero;stroke:none"
       id="path18485" />
    <path
       inkscape:connector-curvature="0"
       d="M 128.045,9.745 123.96,18.3275 119.85375,9.85 C 119.6575,9.46 119.5675,9.385 119.4475,9.385 c -0.12,0 -0.21,0.135 -0.255,0.39 l -1.48625,9.79875 c -0.075,0.51 -0.19625,1.09625 -0.61625,1.18625 -0.225,0.045 -0.33,0.045 -0.45,0.045 -0.15,0 -0.24125,0.03 -0.24125,0.105 0,0.135 0.12125,0.165 0.27125,0.165 0.48,0 1.20125,-0.045 1.48625,-0.045 0.27,0 0.94625,0.045 1.5775,0.045 0.225,0 0.36,-0.03 0.36,-0.165 0,-0.075 -0.105,-0.105 -0.225,-0.105 -0.15,0 -0.36125,-0.015 -0.63125,-0.075 -0.255,-0.06 -0.45,-0.195 -0.45,-0.48 0,-0.24125 0.015,-0.43625 0.045,-0.70625 l 0.78,-5.9775 0.06,0 c 0.52625,1.12625 1.4275,3.01875 1.5625,3.33375 0.18,0.42125 1.36625,2.71875 1.735,3.41 0.24,0.45 0.39,0.75 0.525,0.75 0.135,0 0.21,-0.135 0.55625,-0.84 l 3.27375,-6.81875 0.06,0 0.9,6.6075 c 0.06,0.42125 0.015,0.61625 -0.075,0.64625 -0.105,0.045 -0.165,0.09 -0.165,0.165 0,0.09 0.09,0.135 0.43625,0.165 0.485,0.0375 1.93375,0.0725 2.66875,0.0862 -0.12,-0.0125 -0.17625,-0.0512 -0.17625,-0.14625 0,-0.09 0.06,-0.12 0.18,-0.12 0.075,0 0.17375,-0.005 0.2675,-0.0113 -0.175,-0.0163 -0.3975,-0.0525 -0.6725,-0.13875 -0.45125,-0.135 -0.60125,-0.57125 -0.73625,-1.51625 L 128.64625,9.8499 c -0.045,-0.315 -0.135,-0.465 -0.27,-0.465 -0.13625,0 -0.22625,0.12 -0.33125,0.36 m 3.37375,11.33 c 0.045,0 0.0825,0 0.11,0 0.03,0 0.0575,0 0.085,-0.002 -0.065,10e-4 -0.13,10e-4 -0.195,0.002"
       style="fill:#6d2071;fill-opacity:1;fill-rule:nonzero;stroke:none"
       id="path18487" />
    <path
       inkscape:connector-curvature="0"
       d="m 136.6725,9.985 -3.76875,9.43875 C 132.6025,20.175 132.3175,20.685 131.62,20.775 c -0.12125,0.015 -0.33125,0.03 -0.46625,0.03 -0.12,0 -0.18,0.03 -0.18,0.12 0,0.12 0.09,0.15 0.285,0.15 0.78875,0 1.615,-0.045 1.78,-0.045 0.465,0 1.11125,0.045 1.59125,0.045 0.165,0 0.25625,-0.03 0.25625,-0.15 0,-0.09 -0.0462,-0.12 -0.22625,-0.12 l -0.225,0 c -0.465,0 -0.6,-0.195 -0.6,-0.465 0,-0.18 0.075,-0.54125 0.225,-0.91625 l 0.81125,-2.1475 c 0.03,-0.09 0.06,-0.12 0.135,-0.12 l 3.34875,0 0.15,0.105 1.20125,3.18375 c 0.075,0.18 -0.03,0.315 -0.135,0.345 -0.15,0.015 -0.21,0.045 -0.21,0.135 0,0.105 0.18,0.105 0.45,0.12 1.20125,0.03 2.2975,0.03 2.83875,0.03 0.36375,0 0.5475,-0.0125 0.63,-0.055 -0.03,-0.0238 -0.045,-0.055 -0.045,-0.095 0,-0.0413 0.0188,-0.0725 0.0637,-0.0937 -0.0337,-0.0213 -0.0862,-0.0263 -0.15375,-0.0263 -0.18,0 -0.405,-0.015 -0.63,-0.06 -0.31625,-0.075 -0.75125,-0.285 -1.3225,-1.63625 -0.96125,-2.28375 -3.36375,-8.4175 -3.72375,-9.24375 -0.15,-0.345 -0.24,-0.48 -0.375,-0.48 -0.15125,0 -0.24125,0.165 -0.42125,0.6 m -1.42625,6.315 1.38125,-3.7025 0.09,-0.135 0.075,0.135 1.3525,3.7175 -0.0762,0.09 -2.7625,0 -0.06,-0.105"
       style="fill:#6d2071;fill-opacity:1;fill-rule:nonzero;stroke:none"
       id="path18489" />
    <path
       inkscape:connector-curvature="0"
       d="m 145.4875,9.76 c -0.405,0 -1.35125,-0.045 -2.0575,-0.045 -0.225,0 -0.33,0.03 -0.33,0.135 0,0.105 0.09,0.135 0.255,0.135 0.19625,0 0.37625,0.015 0.49625,0.045 0.495,0.105 0.615,0.345 0.645,0.85625 0.03,0.48 0.03,0.90125 0.03,3.19125 l 0,2.6425 c 0,1.3825 0,2.56875 -0.075,3.19875 -0.06,0.43625 -0.135,0.76625 -0.435,0.82625 -0.135,0.03 -0.315,0.06 -0.54125,0.06 -0.18,0 -0.24,0.045 -0.24,0.12 0,0.105 0.105,0.15 0.30125,0.15 0.6,0 1.54625,-0.045 1.89125,-0.045 1.21625,0 2.2075,0.09 4.37,0.09 0.78125,0 0.85625,-0.075 0.94625,-0.405 0.12,-0.435 0.225,-1.56125 0.225,-1.7275 0,-0.18 -0.015,-0.255 -0.12,-0.255 -0.12,0 -0.15,0.09 -0.165,0.225 -0.03,0.28625 -0.21,0.70625 -0.39,0.90125 -0.37625,0.40625 -0.96125,0.42125 -1.7575,0.42125 -1.17125,0 -1.56125,-0.105 -1.8175,-0.33125 -0.315,-0.27 -0.315,-1.30625 -0.315,-3.22875 l 0,-2.6425 c 0,-2.29 0,-2.71125 0.03,-3.19125 0.03,-0.52625 0.15,-0.78125 0.55625,-0.85625 0.18,-0.03 0.42,-0.045 0.585,-0.045 0.18,0 0.27125,-0.03 0.27125,-0.135 0,-0.105 -0.10625,-0.135 -0.31625,-0.135 -0.585,0 -1.68125,0.045 -2.0425,0.045"
       style="fill:#6d2071;fill-opacity:1;fill-rule:nonzero;stroke:none"
       id="path18491" />
    <path
       inkscape:connector-curvature="0"
       d="m 156.61625,9.985 -3.7775,9.43875 c -0.2925,0.75125 -0.585,1.26125 -1.27625,1.35125 -0.12,0.015 -0.33,0.03 -0.465,0.03 -0.12125,0 -0.18125,0.03 -0.18125,0.12 0,0.12 0.09,0.15 0.28625,0.15 0.7875,0 1.60625,-0.045 1.77125,-0.045 0.47375,0 1.11125,0.045 1.6,0.045 0.165,0 0.255,-0.03 0.255,-0.15 0,-0.09 -0.045,-0.12 -0.225,-0.12 l -0.225,0 c -0.46625,0 -0.60875,-0.195 -0.60875,-0.465 0,-0.18 0.075,-0.54125 0.225,-0.91625 l 0.81875,-2.1475 c 0.03,-0.09 0.06,-0.12 0.135,-0.12 l 3.34875,0 0.15,0.105 1.20125,3.18375 c 0.0762,0.18 -0.03,0.315 -0.135,0.345 -0.15,0.015 -0.21,0.045 -0.21,0.135 0,0.105 0.18,0.105 0.45125,0.12 1.20125,0.03 2.2975,0.03 2.8375,0.03 0.55625,0 0.69125,-0.03 0.69125,-0.15 0,-0.105 -0.075,-0.12 -0.195,-0.12 -0.18125,0 -0.40625,-0.015 -0.63125,-0.06 -0.315,-0.075 -0.75125,-0.285 -1.32125,-1.63625 -0.96125,-2.28375 -3.36375,-8.4175 -3.725,-9.24375 -0.15,-0.345 -0.24,-0.48 -0.375,-0.48 -0.15,0 -0.24,0.165 -0.42,0.6 m -1.4275,6.315 1.3825,-3.7025 0.09,-0.135 0.075,0.135 1.35125,3.7175 -0.075,0.09 -2.76375,0 -0.06,-0.105"
       style="fill:#6d2071;fill-opacity:1;fill-rule:nonzero;stroke:none"
       id="path18493" />
    <path
       inkscape:connector-curvature="0"
       d="m 161.00875,9.79 c -0.03,0.12 -0.31625,1.48625 -0.31625,1.72625 0,0.16625 0.03,0.24125 0.13625,0.24125 0.09,0 0.135,-0.06 0.165,-0.18 0.03,-0.12125 0.105,-0.30125 0.255,-0.52625 0.225,-0.33 0.585,-0.405 1.45625,-0.435 l 2.2375,-0.06 0,6.16375 c 0,1.3825 0,2.56875 -0.075,3.19875 -0.045,0.43625 -0.135,0.76625 -0.435,0.82625 -0.135,0.03 -0.315,0.06 -0.54125,0.06 -0.18,0 -0.24,0.045 -0.24,0.12 0,0.105 0.105,0.15 0.3,0.15 0.60125,0 1.5475,-0.045 1.8925,-0.045 0.42125,0 1.36625,0.045 2.3575,0.045 0.16625,0 0.28625,-0.045 0.28625,-0.15 0,-0.075 -0.075,-0.12 -0.24125,-0.12 -0.225,0 -0.555,-0.03 -0.765,-0.06 C 167.03,20.685 166.94,20.355 166.895,19.93375 166.82,19.28875 166.82,18.1025 166.82,16.72 l 0,-6.16375 1.8925,0.045 c 1.33625,0.03 1.74125,0.45 1.77125,0.84 l 0.015,0.16625 c 0.015,0.225 0.045,0.3 0.16625,0.3 0.09,0 0.12,-0.09 0.1425,-0.24 0,-0.39125 0.0375,-1.4275 0.0375,-1.7425 0,-0.225 -0.015,-0.315 -0.12,-0.315 -0.12,0 -0.47375,0.15 -1.4425,0.15 l -5.94625,0 c -0.49625,0 -1.06625,-0.03 -1.5025,-0.075 -0.375,-0.03 -0.525,-0.18 -0.645,-0.18 -0.09,0 -0.135,0.09 -0.18,0.285"
       style="fill:#6d2071;fill-opacity:1;fill-rule:nonzero;stroke:none"
       id="path18495" />
    <path
       inkscape:connector-curvature="0"
       d="M 0,7.465 C 2.52375,3.0075 7.31125,0 12.79875,0 18.70125,0 23.79125,3.47875 26.13,8.49875 25.92125,8.75 25.7125,8.97 25.52125,9.12125 c -0.82,0.64375 -1.8,0.4675 -1.8,0.4675 l 0,-4.3625 c 0,0 -1.80125,2.62 -4.0125,2.62 l -5.05,0 -0.0587,-1.8 c 0,0 -0.70375,0.805 -1.5675,1.3325 C 12.1688,7.905 10.6463,8.0225 10.6463,8.0225 l 0,6.79375 c 0,4.465 -4.71375,5.51875 -5.4025,5.51875 -0.6875,0 -5.11,0.29375 -5.11,-5.46 0,-5.75375 9.69375,-6.79375 9.69375,-6.79375 0,0 -2.1975,-0.7025 -5.16875,-1.28875 C 3.0663,6.48 1.2988,6.955 5e-5,7.465 m 27.1025,10.6375 c -1.535,6.4775 -7.35625,11.29625 -14.30375,11.29625 -4.71375,0 -8.91,-2.22 -11.59875,-5.67 0.9925,0.38625 2.245,0.73625 3.51625,0.73625 7.4975,0 9.9425,-5.755 9.9425,-7.73125 l 0,-5.4025 8.82875,0 0,6.3975 c 0,0 -1.45125,0.1025 -2.68,0.1025 -1.23,0 -2.5475,-0.21875 -2.60625,0.3525 -0.0588,0.57125 -0.46875,1.5075 -1.45,2.7375 -0.84625,1.0625 0.80625,0.68875 2.3725,0.68875 l 4.245,0 c 0,0 0.9375,-0.7475 2.21125,-2.31375 0.53625,-0.66 1.06375,-1.0125 1.5225,-1.19375"
       style="fill:#366549;fill-opacity:1;fill-rule:nonzero;stroke:none"
       id="path18535" />
    <path
       inkscape:connector-curvature="0"
       d="m 19.1075,14.7375 -2.03375,2.03375 -2.0325,-2.03375 2.0325,-2.0325 2.03375,2.0325 m -0.03,0 L 21.11,12.705 23.14375,14.7375 21.11,16.77125 19.0775,14.7375 Z m -15.77125,0 L 5.34,12.705 7.3725,14.7375 5.34,16.77125"
       style="fill:#ffffff;fill-opacity:1;fill-rule:nonzero;stroke:none"
       id="path18537" />
  </g>
</svg>
